HIERARCHY
ROOT Hips
{
    OFFSET 0.000 93.594 0.000
    CHANNELS 6 Xposition Yposition Zposition Yrotation Xrotation Zrotation
    JOINT RightHip
    {
        OFFSET -9.500 -1.594 0.000
        CHANNELS 3 Yrotation Xrotation Zrotation
        JOINT RightKnee
        {
            OFFSET 0.000 -42.000 0.000
            CHANNELS 3 Yrotation Xrotation Zrotation
            JOINT RightAnkle
            {
                OFFSET 0.000 -42.000 0.000
                CHANNELS 3 Yrotation Xrotation Zrotation
                End Site
                {
                    OFFSET 0.000 -8.000 17.500
                }
            }
        }
    }
    JOINT LeftHip
    {
        OFFSET 9.500 -1.594 0.000
        CHANNELS 3 Yrotation Xrotation Zrotation
        JOINT LeftKnee
        {
            OFFSET 0.000 -42.000 0.000
            CHANNELS 3 Yrotation Xrotation Zrotation
            JOINT LeftAnkle
            {
                OFFSET 0.000 -42.000 0.000
                CHANNELS 3 Yrotation Xrotation Zrotation
                End Site
                {
                    OFFSET 0.000 -8.000 17.500
                }
            }
        }
    }
    JOINT Chest
    {
        OFFSET 0.000 14.348 0.000
        CHANNELS 3 Yrotation Xrotation Zrotation
        JOINT Chest2
        {
            OFFSET 0.000 9.746 0.000
            CHANNELS 3 Yrotation Xrotation Zrotation
            JOINT Chest3
            {
                OFFSET 0.000 10.149 0.000
                CHANNELS 3 Yrotation Xrotation Zrotation
                JOINT Chest4
                {
                    OFFSET 0.000 9.746 0.000
                    CHANNELS 3 Yrotation Xrotation Zrotation
                    JOINT Neck
                    {
                        OFFSET 0.000 10.417 0.000
                        CHANNELS 3 Yrotation Xrotation Zrotation
                        JOINT Head
                        {
                            OFFSET 0.000 9.000 0.000
                            CHANNELS 3 Yrotation Xrotation Zrotation
                            End Site
                            {
                                OFFSET 0.000 16.000 0.000
                            }
                        }
                    }
                    JOINT RightCollar
                    {
                        OFFSET -3.200 6.945 0.000
                        CHANNELS 3 Yrotation Xrotation Zrotation
                        JOINT RightShoulder
                        {
                            OFFSET -12.800 0.000 0.000
                            CHANNELS 3 Yrotation Xrotation Zrotation
                            JOINT RightElbow
                            {
OFFSET -0 -27 0.000
						CHANNELS 3 Xrotation Yrotation Zrotation
                                JOINT RightWrist
                                {
OFFSET -0 -26 0.000
						CHANNELS 3 Xrotation Yrotation Zrotation
                                    JOINT RightFinger0
                                    {
OFFSET -0.196 -2.56 3.210
						CHANNELS 3 Xrotation Yrotation Zrotation
                                        JOINT RightFinger01
                                        {
OFFSET -0 -3.788 0.000
						CHANNELS 3 Xrotation Yrotation Zrotation
                                            JOINT RightFinger0Nub
                                            {
OFFSET -0 -2.631 0.000
						CHANNELS 3 Xrotation Yrotation Zrotation
                                                End Site
                                                {
OFFSET 0 -2.256 0
                                                }
                                            }
                                        }
                                    }
                                    JOINT RightFinger1
                                    {
OFFSET -0.523 -3.316 2.035
						CHANNELS 3 Xrotation Yrotation Zrotation
                                        JOINT RightFinger11
                                        {
OFFSET 0.094 -5.366 1.028
						CHANNELS 3 Xrotation Yrotation Zrotation
                                            JOINT RightFinger12
                                            {
OFFSET -0 -3.723 0.000
						CHANNELS 3 Xrotation Yrotation Zrotation
                                                JOINT RightFinger1Nub
                                                {
OFFSET -0 -2.111 0.000
						CHANNELS 3 Xrotation Yrotation Zrotation
                                                    End Site
                                                    {
OFFSET 0 -1.857 0
                                                    }
                                                }
                                            }
                                        }
                                    }
                                    JOINT RightFinger2
                                    {
OFFSET -0.532 -3.479 0.778
						CHANNELS 3 Xrotation Yrotation Zrotation
                                        JOINT RightFinger21
                                        {
OFFSET 0.086 -5.322 0.323
						CHANNELS 3 Xrotation Yrotation Zrotation
                                            JOINT RightFinger22
                                            {
OFFSET -0 -4.062 0.000
						CHANNELS 3 Xrotation Yrotation Zrotation
                                                JOINT RightFinger2Nub
                                                {
OFFSET -0 -2.547 0.000
						CHANNELS 3 Xrotation Yrotation Zrotation
                                                    End Site
                                                    {
OFFSET 0 -2.031 0
                                                    }
                                                }
                                            }
                                        }
                                    }
                                    JOINT RightFinger3
                                    {
OFFSET -0.553 -3.461 -0.133
						CHANNELS 3 Xrotation Yrotation Zrotation
                                        JOINT RightFinger31
                                        {
OFFSET 0.023 -4.767 -0.493
						CHANNELS 3 Xrotation Yrotation Zrotation
                                            JOINT RightFinger32
                                            {
OFFSET -0 -3.541 0.000
						CHANNELS 3 Xrotation Yrotation Zrotation
                                                JOINT RightFinger3Nub
                                                {
OFFSET -0 -2.456 0.000
						CHANNELS 3 Xrotation Yrotation Zrotation
                                                    End Site
                                                    {
OFFSET 0 -1.91 0
                                                    }
                                                }
                                            }
                                        }
                                    }
                                    JOINT RightFinger4
                                    {
OFFSET -0.483 -3.251 -1.236
						CHANNELS 3 Xrotation Yrotation Zrotation
                                        JOINT RightFinger41
                                        {
OFFSET 0.023 -4.259 -1.122
						CHANNELS 3 Xrotation Yrotation Zrotation
                                            JOINT RightFinger42
                                            {
OFFSET -0 -2.835 0.000
						CHANNELS 3 Xrotation Yrotation Zrotation
                                                JOINT RightFinger4Nub
                                                {
OFFSET -0 -1.792 0.000
						CHANNELS 3 Xrotation Yrotation Zrotation
                                                    End Site
                                                    {
OFFSET 0 -1.692 0
                                                    }
                                                }
                                            }
                                        }
                                    }
                                }
                            }
                        }
                    }
                    JOINT LeftCollar
                    {
                        OFFSET 3.200 6.945 0.000
                        CHANNELS 3 Yrotation Xrotation Zrotation
                        JOINT LeftShoulder
                        {
                            OFFSET 12.800 0.000 0.000
                            CHANNELS 3 Yrotation Xrotation Zrotation
                            JOINT LeftElbow
                            {
OFFSET -0 -27 0.000
						CHANNELS 3 Xrotation Yrotation Zrotation
                                JOINT LeftWrist
                                {
OFFSET -0 -26 0.000
						CHANNELS 3 Xrotation Yrotation Zrotation
                                    JOINT LeftFinger0
                                    {
OFFSET -0.196 -2.56 3.210
						CHANNELS 3 Xrotation Yrotation Zrotation
                                        JOINT LeftFinger01
                                        {
OFFSET -0 -3.788 0.000
						CHANNELS 3 Xrotation Yrotation Zrotation
                                            JOINT LeftFinger0Nub
                                            {
OFFSET -0 -2.631 0.000
						CHANNELS 3 Xrotation Yrotation Zrotation
                                                End Site
                                                {
OFFSET 0 -2.256 0
                                                }
                                            }
                                        }
                                    }
                                    JOINT LeftFinger1
                                    {
OFFSET -0.523 -3.316 2.035
						CHANNELS 3 Xrotation Yrotation Zrotation
                                        JOINT LeftFinger11
                                        {
OFFSET 0.094 -5.366 1.028
						CHANNELS 3 Xrotation Yrotation Zrotation
                                            JOINT LeftFinger12
                                            {
OFFSET -0 -3.723 0.000
						CHANNELS 3 Xrotation Yrotation Zrotation
                                                JOINT LeftFinger1Nub
                                                {
OFFSET -0 -2.111 0.000
						CHANNELS 3 Xrotation Yrotation Zrotation
                                                    End Site
                                                    {
OFFSET 0 -1.857 0
                                                    }
                                                }
                                            }
                                        }
                                    }
                                    JOINT LeftFinger2
                                    {
OFFSET -0.532 -3.479 0.778
						CHANNELS 3 Xrotation Yrotation Zrotation
                                        JOINT LeftFinger21
                                        {
OFFSET 0.086 -5.322 0.323
						CHANNELS 3 Xrotation Yrotation Zrotation
                                            JOINT LeftFinger22
                                            {
OFFSET -0 -4.062 0.000
						CHANNELS 3 Xrotation Yrotation Zrotation
                                                JOINT LeftFinger2Nub
                                                {
OFFSET -0 -2.547 0.000
						CHANNELS 3 Xrotation Yrotation Zrotation
                                                    End Site
                                                    {
OFFSET 0 -2.031 0
                                                    }
                                                }
                                            }
                                        }
                                    }
                                    JOINT LeftFinger3
                                    {
OFFSET -0.553 -3.461 -0.133
						CHANNELS 3 Xrotation Yrotation Zrotation
                                        JOINT LeftFinger31
                                        {
OFFSET 0.023 -4.767 -0.493
						CHANNELS 3 Xrotation Yrotation Zrotation
                                            JOINT LeftFinger32
                                            {
OFFSET -0 -3.541 0.000
						CHANNELS 3 Xrotation Yrotation Zrotation
                                                JOINT LeftFinger3Nub
                                                {
OFFSET -0 -2.456 0.000
						CHANNELS 3 Xrotation Yrotation Zrotation
                                                    End Site
                                                    {
OFFSET 0 -1.91 0
                                                    }
                                                }
                                            }
                                        }
                                    }
                                    JOINT LeftFinger4
                                    {
OFFSET -0.483 -3.251 -1.236
						CHANNELS 3 Xrotation Yrotation Zrotation
                                        JOINT LeftFinger41
                                        {
OFFSET 0.023 -4.259 -1.122
						CHANNELS 3 Xrotation Yrotation Zrotation
                                            JOINT LeftFinger42
                                            {
OFFSET -0 -2.835 0.000
						CHANNELS 3 Xrotation Yrotation Zrotation
                                                JOINT LeftFinger4Nub
                                                {
OFFSET -0 -1.792 0.000
						CHANNELS 3 Xrotation Yrotation Zrotation
                                                    End Site
                                                    {
OFFSET 0 -1.692 0
                                                    }
                                                }
                                            }
                                        }
                                    }
                                }
                            }
                        }
                    }
                }
            }
        }
    }
}
MOTION

Frames: 13
Frame Time: 0.017
-188.30 93.24 86.46 89.68 0.69 -4.75 -3.97 -7.01 -8.90 0.00 30.55 -0.00 -29.19 -5.03 21.89 -20.40 -14.64 10.74 0.00 26.41 0.00 11.66 -10.64 -6.96 -15.49 1.45 1.11 -3.90 0.34 0.32 -6.34 0.59 0.50 1.11 2.49 -0.78 -3.30 40.19 -11.69 5.04 37.94 -13.91 2.93 -4.78 -0.69 -10.24 7.75 -31.81 -62.74 -18.15 66.89 -16.25 8.81 -3.31 -49.31 -0 20.04 11.93 -0 -9.78 4.1 -0 0.00 0 -0 0.00 -15 -0 13.80 0 -0 12.60 0 -0 6.30 0 -0 0.00 0 -0 8.96 0 -0 8.96 0 -0 8.96 0 -0 0.00 15 -0 22.03 0 -0 22.03 0 -0 22.03 0 -0 0.00 25 -0 24.15 0 -0 24.15 0 -0 24.15 -13.32 1.15 -0.89 24.96 -15.55 18.65 21.71 50.98 -100.64 -0.14 36.27 -1.67 -26.88 0 -34.81 -43.71 0 9.40 36.49 0 0.00 0.00 0 0.00 -15.00 0 -10.45 0.00 0 -20.59 0.00 0 -10.29 0.00 0 0.00 0.00 0 -24.09 0.00 0 -24.09 0.00 0 -24.09 0.00 0 0.00 15.00 0 -32.57 0.00 0 -32.57 0.00 0 -32.57 0.00 0 0.00 25.00 0 -26.76 0.00 0 -26.76 0.00 0 -26.76 
-188.37 93.16 86.72 89.77 0.65 -4.65 -4.08 -6.94 -8.96 -0.00 30.39 0.00 -30.15 -5.26 24.19 -20.55 -14.88 10.84 0.00 26.92 0.00 11.59 -10.85 -7.19 -15.54 1.46 1.05 -3.91 0.34 0.30 -6.36 0.59 0.48 1.11 2.49 -0.78 -3.30 40.19 -11.69 5.04 37.94 -13.91 3.25 -5.22 -0.98 -10.40 8.15 -31.8 -62.47 -18.27 67.23 -16.39 8.76 -3.43 -49.31 -0 20.07 11.93 -0 -9.76 4.23 -0 0.00 0 -0 0.00 -15 -0 13.67 0 -0 12.93 0 -0 6.46 0 -0 0.00 0 -0 9.04 0 -0 9.04 0 -0 9.04 0 -0 0.00 15 -0 22.15 0 -0 22.15 0 -0 22.15 0 -0 0.00 25 -0 24.28 0 -0 24.28 0 -0 24.28 -13.32 1.15 -0.89 24.95 -15.74 18.84 21.12 51.08 -100.57 -0.39 36.75 -1.00 -26.93 0 -34.88 -43.82 0 9.34 36.15 0 0.00 0.00 0 0.00 -15.00 0 -11.01 0.00 0 -20.54 0.00 0 -10.27 0.00 0 0.00 0.00 0 -24.49 0.00 0 -24.49 0.00 0 -24.49 0.00 0 0.00 15.00 0 -33.00 0.00 0 -33.00 0.00 0 -33.00 0.00 0 0.00 25.00 0 -26.93 0.00 0 -26.93 0.00 0 -26.93 
-188.42 93.05 86.94 89.77 0.65 -4.65 -3.98 -7.14 -9.03 0.00 30.82 -0.00 -30.20 -5.41 24.38 -20.68 -15.10 11.01 -0.00 27.43 -0.00 11.64 -11.07 -7.40 -15.54 1.46 1.05 -3.91 0.34 0.30 -6.36 0.59 0.48 1.11 2.49 -0.78 -3.30 40.19 -11.69 5.04 37.94 -13.91 3.25 -5.22 -0.98 -10.40 8.15 -31.8 -62.47 -18.27 67.23 -16.39 8.76 -3.43 -49.31 -0 20.07 11.93 -0 -9.76 4.23 -0 0.00 0 -0 0.00 -15 -0 13.67 0 -0 12.93 0 -0 6.46 0 -0 0.00 0 -0 9.04 0 -0 9.04 0 -0 9.04 0 -0 0.00 15 -0 22.15 0 -0 22.15 0 -0 22.15 0 -0 0.00 25 -0 24.28 0 -0 24.28 0 -0 24.28 -13.32 1.15 -0.89 24.95 -15.74 18.84 21.12 51.08 -100.57 -0.39 36.75 -1.00 -27.78 0 -38.04 -45.51 0 6.18 22.45 0 0.00 0.00 0 0.00 -15.00 0 -1.34 0.00 0 -13.34 0.00 0 -6.67 0.00 0 0.00 0.00 0 -17.41 0.00 0 -17.41 0.00 0 -17.41 0.00 0 0.00 15.00 0 -25.75 0.00 0 -25.75 0.00 0 -25.75 0.00 0 0.00 25.00 0 -17.97 0.00 0 -17.97 0.00 0 -17.97 
-188.47 92.96 87.13 89.77 0.65 -4.65 -3.89 -7.31 -9.09 -0.00 31.19 -0.00 -30.24 -5.54 24.53 -20.79 -15.29 11.17 0.00 27.85 0.00 11.68 -11.26 -7.59 -15.54 1.46 1.05 -3.91 0.34 0.30 -6.36 0.59 0.48 1.11 2.49 -0.78 -3.30 40.19 -11.69 5.04 37.94 -13.91 3.25 -5.22 -0.98 -10.40 8.15 -31.8 -62.47 -18.27 67.23 -16.39 8.76 -3.43 -49.31 -0 20.07 11.93 -0 -9.76 4.23 -0 0.00 0 -0 0.00 -15 -0 13.67 0 -0 12.93 0 -0 6.46 0 -0 0.00 0 -0 9.04 0 -0 9.04 0 -0 9.04 0 -0 0.00 15 -0 22.15 0 -0 22.15 0 -0 22.15 0 -0 0.00 25 -0 24.28 0 -0 24.28 0 -0 24.28 -13.32 1.15 -0.89 24.95 -15.74 18.84 21.12 51.08 -100.57 -0.39 36.75 -1.00 -27.73 0 -38.86 -45.41 0 5.36 21.67 0 0.00 0.00 0 0.00 -15.00 0 -1.40 0.00 0 -13.25 0.00 0 -6.63 0.00 0 0.00 0.00 0 -17.49 0.00 0 -17.49 0.00 0 -17.49 0.00 0 0.00 15.00 0 -25.78 0.00 0 -25.78 0.00 0 -25.78 0.00 0 0.00 25.00 0 -18.11 0.00 0 -18.11 0.00 0 -18.11 
-188.44 92.85 87.22 96.41 -0.05 -6.41 -10.16 -2.56 -4.69 -0.00 23.05 -0.00 -46.88 -5.29 19.82 -24.90 -15.37 12.92 -0.00 29.29 -0.00 9.26 -10.91 -8.52 -15.46 -1.65 4.72 -3.91 -0.28 1.12 -6.36 -0.20 1.85 0.82 2.77 -0.70 -3.70 46.82 -10.09 -4.23 37.67 -15.07 3.45 -3.77 0.01 -7.94 3.92 -33.01 -57.12 -20.43 67.31 -15.62 12.78 -7.86 -50.05 -0 21.57 10.43 -0 -8.25 2.99 -0 0.00 0 -0 0.00 -15 -0 9.52 0 -0 9.45 0 -0 4.73 0 -0 0.00 0 -0 5.58 0 -0 5.58 0 -0 5.58 0 -0 0.00 15 -0 20.35 0 -0 20.35 0 -0 20.35 0 -0 0.00 25 -0 24.52 0 -0 24.52 0 -0 24.52 -12.81 -0.97 -4.42 21.72 -12.33 17.86 21.32 49.77 -98.40 2.78 31.82 1.50 -29.11 0 -37.61 -48.17 0 6.61 21.05 0 0.00 0.00 0 0.00 -15.00 0 -1.52 0.00 0 -13.18 0.00 0 -6.59 0.00 0 0.00 0.00 0 -15.73 0.00 0 -15.73 0.00 0 -15.73 0.00 0 0.00 15.00 0 -25.38 0.00 0 -25.38 0.00 0 -25.38 0.00 0 0.00 25.00 0 -18.12 0.00 0 -18.12 0.00 0 -18.12 
-188.42 92.78 87.63 96.35 -0.16 -6.40 -10.25 -2.98 -4.31 -0.00 23.45 -0.00 -46.83 -5.52 19.41 -24.88 -15.20 13.14 0.00 29.34 0.00 9.23 -10.86 -8.70 -15.27 -1.38 4.64 -3.86 -0.22 1.11 -6.28 -0.12 1.83 0.81 2.78 -0.70 -3.66 46.69 -9.94 -4.25 37.50 -14.92 3.18 -4.03 -0.00 -8.09 4.65 -32.79 -56.91 -20.6 67.02 -16.26 12.43 -7.66 -50.14 -0 21.62 10.26 -0 -8.20 3.01 -0 0.00 0 -0 0.00 -15 -0 9.64 0 -0 9.72 0 -0 4.86 0 -0 0.00 0 -0 5.67 0 -0 5.67 0 -0 5.67 0 -0 0.00 15 -0 19.85 0 -0 19.85 0 -0 19.85 0 -0 0.00 25 -0 24.12 0 -0 24.12 0 -0 24.12 -13.04 -1.15 -4.27 21.75 -12.82 17.9 21.48 50.1 -98.78 2.68 31.42 1.32 -29.02 0 -37.87 -47.99 0 6.35 20.56 0 0.00 0.00 0 0.00 -15.00 0 -1.21 0.00 0 -13.16 0.00 0 -6.58 0.00 0 0.00 0.00 0 -15.56 0.00 0 -15.56 0.00 0 -15.56 0.00 0 0.00 15.00 0 -25.01 0.00 0 -25.01 0.00 0 -25.01 0.00 0 0.00 25.00 0 -17.78 0.00 0 -17.78 0.00 0 -17.78 
-188.47 92.68 88.23 96.29 -0.30 -6.40 -10.39 -3.24 -4.05 0.00 23.75 0.00 -46.70 -5.70 19.08 -20.94 -15.99 13.49 0.00 29.50 -0.00 5.15 -10.94 -8.02 -15.20 -1.24 4.58 -3.84 -0.19 1.10 -6.25 -0.08 1.81 0.80 2.78 -0.70 -3.64 46.65 -9.90 -4.21 37.47 -14.86 3.19 -3.94 -0.00 -8.28 5.20 -32.7 -56.21 -20.91 67.06 -16.82 11.87 -7.33 -50.04 -0 22.25 10.47 -0 -7.57 -0.03 -0 0.00 0 -0 0.00 -15 -0 9.71 0 -0 9.81 0 -0 4.91 0 -0 0.00 0 -0 6.30 0 -0 6.30 0 -0 6.30 0 -0 0.00 15 -0 19.45 0 -0 19.45 0 -0 19.45 0 -0 0.00 25 -0 21.26 0 -0 21.26 0 -0 21.26 -13.15 -1.10 -4.19 21.89 -13.29 17.85 21.47 50.45 -98.99 2.40 30.53 -0.71 -28.57 0 -37.79 -47.10 0 6.43 20.03 0 0.00 0.00 0 0.00 -15.00 0 0.46 0.00 0 -13.16 0.00 0 -6.58 0.00 0 0.00 0.00 0 -14.72 0.00 0 -14.72 0.00 0 -14.72 0.00 0 0.00 15.00 0 -24.10 0.00 0 -24.10 0.00 0 -24.10 0.00 0 0.00 25.00 0 -16.56 0.00 0 -16.56 0.00 0 -16.56 
-188.43 92.59 88.73 96.22 -0.42 -6.38 -10.62 -3.41 -3.92 -0.00 23.93 -0.00 -46.46 -5.84 18.82 -20.89 -15.87 13.79 0.00 29.65 -0.00 5.05 -11.02 -8.29 -15.19 -1.21 4.55 -3.84 -0.18 1.09 -6.25 -0.07 1.80 0.81 2.78 -0.70 -3.65 46.67 -9.93 -4.19 37.51 -14.88 3.26 -3.76 0.03 -8.48 5.56 -32.82 -55.17 -21.23 67.49 -17.26 11.51 -6.93 -49.97 -0 22.77 10.61 -0 -7.05 -0.83 -0 0.00 0 -0 0.00 -15 -0 9.72 0 -0 9.82 0 -0 4.91 0 -0 0.00 0 -0 6.82 0 -0 6.82 0 -0 6.82 0 -0 0.00 15 -0 19.45 0 -0 19.45 0 -0 19.45 0 -0 0.00 25 -0 21.23 0 -0 21.23 0 -0 21.23 -13.21 -0.94 -4.14 22.09 -13.72 17.74 21.34 50.82 -99.08 2.36 30.34 -0.99 -28.42 0 -38.12 -46.80 0 6.09 19.67 0 0.00 0.00 0 0.00 -15.00 0 0.87 0.00 0 -12.98 0.00 0 -6.49 0.00 0 0.00 0.00 0 -14.39 0.00 0 -14.39 0.00 0 -14.39 0.00 0 0.00 15.00 0 -23.94 0.00 0 -23.94 0.00 0 -23.94 0.00 0 0.00 25.00 0 -16.11 0.00 0 -16.11 0.00 0 -16.11 
-188.44 92.48 89.19 96.09 -0.44 -6.33 -10.91 -3.65 -3.88 -0.00 24.08 -0.00 -46.07 -5.96 18.60 -21.56 -15.76 14.09 -0.00 29.89 -0.00 5.82 -11.09 -8.75 -15.15 -1.28 4.54 -3.83 -0.20 1.09 -6.23 -0.10 1.79 0.81 2.78 -0.70 -3.67 46.72 -9.98 -4.20 37.56 -14.94 3.27 -3.62 0.05 -8.74 5.80 -33.08 -54.31 -21.37 68.04 -17.57 11.27 -6.53 -50.15 -0 22.51 10.23 -0 -7.31 -0.19 -0 0.00 0 -0 0.00 -15 -0 9.70 0 -0 9.76 0 -0 4.88 0 -0 0.00 0 -0 6.69 0 -0 6.69 0 -0 6.69 0 -0 0.00 15 -0 19.45 0 -0 19.45 0 -0 19.45 0 -0 0.00 25 -0 22.55 0 -0 22.55 0 -0 22.55 -13.31 -0.78 -4.10 22.37 -14.08 17.6 21.26 51.16 -99.18 2.30 30.25 -1.31 -28.21 0 -38.48 -46.37 0 5.74 20.02 0 0.00 0.00 0 0.00 -15.00 0 1.30 0.00 0 -12.84 0.00 0 -6.42 0.00 0 0.00 0.00 0 -14.34 0.00 0 -14.34 0.00 0 -14.34 0.00 0 0.00 15.00 0 -23.84 0.00 0 -23.84 0.00 0 -23.84 0.00 0 0.00 25.00 0 -16.05 0.00 0 -16.05 0.00 0 -16.05 
-188.46 92.41 89.48 95.93 -0.39 -6.25 -11.16 -3.95 -3.88 -0.00 24.23 -0.00 -45.69 -6.06 18.42 -22.31 -15.64 14.25 0.00 29.99 0.00 6.66 -11.12 -9.11 -15.19 -1.39 4.59 -3.84 -0.22 1.10 -6.25 -0.13 1.81 0.82 2.77 -0.71 -3.71 46.69 -10.11 -4.23 37.64 -15.13 3.36 -3.55 0.02 -8.98 5.92 -33.4 -53.87 -21.34 68.49 -17.78 11.13 -6.18 -50.34 -0 22.08 9.87 -0 -7.73 0.73 -0 0.00 0 -0 0.00 -15 -0 9.66 0 -0 9.72 0 -0 4.86 0 -0 0.00 0 -0 6.38 0 -0 6.38 0 -0 6.38 0 -0 0.00 15 -0 19.41 0 -0 19.41 0 -0 19.41 0 -0 0.00 25 -0 22.38 0 -0 22.38 0 -0 22.38 -13.30 -0.68 -4.12 22.66 -14.37 17.43 21.40 51.49 -99.47 2.23 30.27 -1.61 -27.92 0 -38.95 -45.79 0 5.27 20.25 0 0.00 0.00 0 0.00 -15.00 0 1.75 0.00 0 -12.90 0.00 0 -6.45 0.00 0 0.00 0.00 0 -14.39 0.00 0 -14.39 0.00 0 -14.39 0.00 0 0.00 15.00 0 -23.70 0.00 0 -23.70 0.00 0 -23.70 0.00 0 0.00 25.00 0 -16.15 0.00 0 -16.15 0.00 0 -16.15 
-188.38 92.40 89.57 95.78 -0.35 -6.15 -11.37 -4.18 -3.95 0.00 24.32 0.00 -45.33 -6.13 18.28 -22.94 -15.44 14.22 0.00 29.96 0.00 7.52 -11.16 -9.31 -15.23 -1.45 4.62 -3.85 -0.24 1.10 -6.27 -0.15 1.82 0.83 2.77 -0.71 -3.75 46.63 -10.24 -4.24 37.69 -15.30 3.38 -3.55 -0.00 -9.20 5.96 -33.69 -53.95 -21.16 68.71 -17.91 11.1 -5.92 -50.51 -0 21.61 9.52 -0 -8.21 1.92 -0 0.00 0 -0 0.00 -15 -0 9.58 0 -0 9.68 0 -0 4.84 0 -0 0.00 0 -0 5.88 0 -0 5.88 0 -0 5.88 0 -0 0.00 15 -0 19.34 0 -0 19.34 0 -0 19.34 0 -0 0.00 25 -0 22.26 0 -0 22.26 0 -0 22.26 -13.29 -0.64 -4.11 22.87 -14.57 17.27 21.79 51.84 -100.00 2.10 30.36 -1.86 -27.57 0 -39.49 -45.08 0 4.72 19.83 0 0.00 0.00 0 0.00 -15.00 0 2.11 0.00 0 -12.89 0.00 0 -6.45 0.00 0 0.00 0.00 0 -14.53 0.00 0 -14.53 0.00 0 -14.53 0.00 0 0.00 15.00 0 -23.54 0.00 0 -23.54 0.00 0 -23.54 0.00 0 0.00 25.00 0 -16.47 0.00 0 -16.47 0.00 0 -16.47 
-188.34 92.38 89.64 95.62 -0.33 -6.04 -11.54 -4.36 -4.06 0.00 24.38 0.00 -44.99 -6.20 18.18 -23.27 -15.34 14.14 -0.00 29.96 -0.00 8.05 -11.21 -9.41 -15.25 -1.46 4.61 -3.85 -0.24 1.10 -6.28 -0.15 1.81 0.84 2.76 -0.72 -3.79 46.53 -10.34 -4.22 37.73 -15.44 3.37 -3.60 -0.01 -9.34 5.99 -33.92 -54.4 -20.95 68.70 -17.98 11.15 -5.75 -50.47 -0 21.69 9.61 -0 -8.13 1.71 -0 0.00 0 -0 0.00 -15 -0 9.50 0 -0 9.59 0 -0 4.79 0 -0 0.00 0 -0 5.74 0 -0 5.74 0 -0 5.74 0 -0 0.00 15 -0 19.31 0 -0 19.31 0 -0 19.31 0 -0 0.00 25 -0 22.21 0 -0 22.21 0 -0 22.21 -13.27 -0.67 -4.08 22.96 -14.70 17.16 22.23 52.19 -100.53 1.94 30.54 -2.18 -27.20 0 -40.01 -44.36 0 4.21 19.67 0 0.00 0.00 0 0.00 -15.00 0 2.34 0.00 0 -12.60 0.00 0 -6.30 0.00 0 0.00 0.00 0 -14.60 0.00 0 -14.60 0.00 0 -14.60 0.00 0 0.00 15.00 0 -23.48 0.00 0 -23.48 0.00 0 -23.48 0.00 0 0.00 25.00 0 -16.82 0.00 0 -16.82 0.00 0 -16.82 
-188.29 92.39 89.60 95.46 -0.34 -5.89 -11.72 -4.50 -4.21 0.00 24.47 -0.00 -44.63 -6.27 18.10 -23.60 -15.22 13.95 0.00 29.93 0.00 8.60 -11.25 -9.44 -15.26 -1.45 4.55 -3.86 -0.24 1.09 -6.28 -0.15 1.79 0.85 2.76 -0.73 -3.81 46.43 -10.43 -4.16 37.76 -15.54 3.33 -3.64 -0.02 -9.41 6.03 -34.06 -54.95 -20.77 68.56 -18.04 11.17 -5.59 -50.42 -0 21.76 9.7 -0 -8.05 1.47 -0 0.00 0 -0 0.00 -15 -0 9.49 0 -0 9.50 0 -0 4.75 0 -0 0.00 0 -0 5.65 0 -0 5.65 0 -0 5.65 0 -0 0.00 15 -0 19.32 0 -0 19.32 0 -0 19.32 0 -0 0.00 25 -0 22.25 0 -0 22.25 0 -0 22.25 -13.26 -0.69 -4.04 22.95 -14.79 17.12 22.83 52.5 -101.19 1.75 30.83 -2.51 -26.84 0 -40.55 -43.63 0 3.67 20.26 0 0.00 0.00 0 0.00 -15.00 0 2.43 0.00 0 -11.83 0.00 0 -5.91 0.00 0 0.00 0.00 0 -14.76 0.00 0 -14.76 0.00 0 -14.76 0.00 0 0.00 15.00 0 -23.42 0.00 0 -23.42 0.00 0 -23.42 0.00 0 0.00 25.00 0 -17.17 0.00 0 -17.17 0.00 0 -17.17 
